<svg xmlns="http://www.w3.org/2000/svg" version="1.1" xmlns:xlink="http://www.w3.org/1999/xlink" xmlns:svgjs="http://svgjs.dev/svgjs" width="100" height="100" ><rect width="1000" height="1000" fill="#ffffff"></rect><g transform="matrix(0.7,0,0,0.7,150.0523152491208,278.6293927125506)"><svg viewBox="0 0 390 247" data-background-color="#97978d" preserveAspectRatio="xMidYMid meet" height="633" width="1000" xmlns="http://www.w3.org/2000/svg" xmlns:xlink="http://www.w3.org/1999/xlink"><g id="tight-bounds" transform="matrix(1,0,0,1,-0.02914706736731887,-0.09999999999999432)"><svg viewBox="0 0 390.05829413473464 247.2" height="247.2" width="390.05829413473464"><g><svg viewBox="0 0 397.4975999999999 251.91467069806328" height="247.2" width="390.05829413473464"><g><rect width="397.4975999999999" height="7.206201362672089" x="0" y="129.29749435676234" fill="#000000" opacity="1" stroke-width="0" stroke="transparent" fill-opacity="1" class="rect-o-0" data-fill-palette-color="primary" rx="1%" id="o-0" data-palette-color="#ffffff"></rect></g><g><rect width="397.4975999999999" height="7.206201362672089" x="0" y="145.9358964559162" fill="#000000" opacity="1" stroke-width="0" stroke="transparent" fill-opacity="1" class="rect-o-1" data-fill-palette-color="primary" rx="1%" id="o-1" data-palette-color="#ffffff"></rect></g><g transform="matrix(1,0,0,1,0.9887999999999693,172.00649929155188)"><svg viewBox="0 0 395.52 79.90817140651139" height="79.90817140651139" width="395.52"><g><svg viewBox="0 0 395.52 79.90817140651139" height="79.90817140651139" width="395.52"><g><svg viewBox="0 0 395.52 79.90817140651139" height="79.90817140651139" width="395.52"><g transform="matrix(1,0,0,1,0,0)"><svg width="395.52" viewBox="5.760000228881836 -37.84000015258789 189.7100067138672 38.33000183105469" height="79.90817140651139" data-palette-color="#ffffff"><path d="M5.76 0L5.76-37.13Q5.76-37.13 9.42-37.4L9.42-37.4Q14.92-37.84 18.19-37.84 21.46-37.84 23.41-37.59 25.37-37.33 26.84-36.71 28.32-36.08 29.36-35.01 30.4-33.94 31.05-32.28L31.05-32.28Q32.3-29.17 32.3-23.05L32.3-23.05 32.3-19.26Q32.3-12.01 31.23-8.25L31.23-8.25Q29.98-3.91 26.76-2L26.76-2Q23.44 0 17.02 0L17.02 0 5.76 0ZM26.49-31.42Q25.61-32.81 23.95-33.52 22.29-34.23 18.85-34.23 15.41-34.23 9.91-33.81L9.91-33.81 9.91-3.49 17.68-3.49Q22.22-3.49 24.41-4.98L24.41-4.98Q26.56-6.42 27.29-9.94L27.29-9.94Q27.93-12.82 27.93-19.26L27.93-19.26 27.93-23.07Q27.93-29.15 26.49-31.42L26.49-31.42ZM43.72 0L43.72-37.35 47.85-37.35 47.85 0 43.72 0ZM83.54-36.06L82.56-32.28Q76.68-34.33 71.26-34.33L71.26-34.33Q65.67-34.33 63.98-29.74L63.98-29.74Q62.98-27.03 62.87-23.57 62.76-20.12 62.76-17.6L62.76-17.6 62.76-15.19Q62.76-7.4 65.38-4.86L65.38-4.86Q66.94-3.34 69.55-3.08L69.55-3.08Q70.77-2.93 72.07-2.93 73.36-2.93 74.57-3.06 75.78-3.2 76.87-3.42L76.87-3.42Q79.1-3.86 80.2-4.39L80.2-4.39 80.2-15.92 72.65-15.92 72.65-19.29 84.27-19.29 84.27-2.56Q81.98-0.83 76.14 0.15L76.14 0.15Q74.12 0.49 71.53 0.49 68.94 0.49 66.78-0.04 64.62-0.56 63.12-1.57 61.62-2.59 60.69-4.1 59.76-5.62 59.25-7.59L59.25-7.59Q58.42-10.91 58.42-15.78 58.42-20.65 58.59-23.47 58.76-26.29 59.26-28.58 59.76-30.86 60.66-32.59 61.57-34.33 63.03-35.5L63.03-35.5Q66.01-37.84 71.53-37.84L71.53-37.84Q77.83-37.84 82.29-36.45L82.29-36.45 83.54-36.06ZM93.69 0L93.69-37.35 97.82-37.35 97.82 0 93.69 0ZM109.85 0L109.85-37.35 113.15-37.35 130.34-10.21 132.56-5.59 132.02-10.72 132.02-37.35 135.81-37.35 135.81 0 132.31 0 115.25-27.08 113.1-31.27 113.64-26.29 113.64 0 109.85 0ZM147.35 0L147.35-37.35 168.52-37.35 168.52-33.74 151.5-33.74 151.5-20.85 165.22-20.85 165.22-17.26 151.5-17.26 151.5-3.59 169.18-3.59 169.18 0 147.35 0ZM181.02 0L181.02-33.74 171.05-33.74 171.05-37.35 195.47-37.35 195.47-33.74 185.17-33.74 185.17 0 181.02 0Z" opacity="1" transform="matrix(1,0,0,1,0,0)" fill="#000000" class="undefined-text-0" data-fill-palette-color="primary" id="text-0"></path></svg></g></svg></g></svg></g></svg></g><g transform="matrix(1,0,0,1,130.71964223348544,0)"><svg viewBox="0 0 136.058315533029 110.43309288379875" height="110.43309288379875" width="136.058315533029"><g><svg version="1.1" xmlns="http://www.w3.org/2000/svg" xmlns:xlink="http://www.w3.org/1999/xlink" x="0" y="0" viewBox="0 0 100 81.16600036621094" enable-background="new 0 0 100 81.166" xml:space="preserve" width="136.058315533029" height="110.43309288379875" class="icon-icon-0" data-fill-palette-color="accent" id="icon-0"><path d="M87.043 0H50 12.957L0 23.557l50 57.609 50-57.609L87.043 0zM83.635 6.345l7.59 13.801h-13.64L83.635 6.345zM77.168 6.043l-5.537 12.636L57.792 6.043H77.168zM64.273 20.146H50 35.727L50 7.113 64.273 20.146zM42.208 6.043L28.37 18.679 22.832 6.043H42.208zM16.365 6.345l6.05 13.801H8.775L16.365 6.345zM10.288 26.189h14.776l15.078 34.399L10.288 26.189zM31.663 26.189H50h18.338L50 68.022 31.663 26.189zM59.857 60.589l15.078-34.399h14.777L59.857 60.589z" fill="#000000" data-fill-palette-color="accent"></path></svg></g></svg></g><g></g></svg></g><defs></defs></svg><rect width="390.05829413473464" height="247.2" fill="none" stroke="none" visibility="hidden"></rect></g></svg></g></svg>